# xmcd
#
# Track frame offsets: 
#        150
#        17859
#        33305
#        50598
#        68622
#        84808
#        105376
#        123445
#        143859
#        158546
#        179126
#        198704
#        218476
#        237651
#        256199
#
# Disc length: 3658 seconds
#
# Revision: 0
# Processed by: cddbd v1.5.2PL0 Copyright (c) Steve Scherf et al.
# Submitted via: ExactAudioCopyFreeDBPlugin 1.0
#
DISCID=cb0e480f
DTITLE=Steevy - Casting De Charme
DYEAR=2012
DGENRE=World
TTITLE0=Erreur De Casting
TTITLE1=Pansé Pozitif
TTITLE2=Lucie
TTITLE3=Libere Moi
TTITLE4=Mon Addiction
TTITLE5=Moitié An Mwen
TTITLE6=Enko Pli Fow
TTITLE7=Passage A Vide
TTITLE8=Lanmou Cé Soley'
TTITLE9=Je M'incline
TTITLE10=Kon An Rénn'
TTITLE11=Ou Ka Ban Mwen Frisson
TTITLE12=Des Mots Simples
TTITLE13=Ou En Tche Mwen
TTITLE14=An Ké Prié
EXTD=
EXTT0=
EXTT1=
EXTT2=
EXTT3=
EXTT4=
EXTT5=
EXTT6=
EXTT7=
EXTT8=
EXTT9=
EXTT10=
EXTT11=
EXTT12=
EXTT13=
EXTT14=
PLAYORDER=
